<svg width="15" height="15" viewBox="0 0 27 27" fill="none" xmlns="http://www.w3.org/2000/svg">
<path fill-rule="evenodd" clip-rule="evenodd" d="M2.90114 13.5C2.90114 8.17105 7.10266 2.8797 13.6426 2.8797C18.924 2.8797 21.5361 6.74436 22.6483 8.80075H19.346C19.0939 8.80075 18.8521 8.89977 18.6739 9.07603C18.4956 9.25228 18.3954 9.49134 18.3954 9.7406C18.3954 9.98987 18.4956 10.2289 18.6739 10.4052C18.8521 10.5814 19.0939 10.6805 19.346 10.6805H25.0494C25.3015 10.6805 25.5433 10.5814 25.7216 10.4052C25.8998 10.2289 26 9.98987 26 9.7406V4.1015C26 3.85224 25.8998 3.61319 25.7216 3.43693C25.5433 3.26067 25.3015 3.16165 25.0494 3.16165C24.7973 3.16165 24.5555 3.26067 24.3773 3.43693C24.199 3.61319 24.0989 3.85224 24.0989 4.1015V7.5094C22.7605 5.17481 19.6616 1 13.6426 1C5.91825 1 1 7.2688 1 13.5C1 19.7312 5.91825 26 13.6426 26C17.3384 26 20.4144 24.5526 22.6046 22.3496C23.7667 21.1777 24.6886 19.7945 25.3194 18.2763C25.3668 18.1621 25.3911 18.0399 25.3907 17.9164C25.3903 17.793 25.3654 17.6709 25.3173 17.557C25.2692 17.4431 25.1988 17.3397 25.1103 17.2527C25.0218 17.1656 24.9168 17.0967 24.8013 17.0498C24.6859 17.0029 24.5622 16.979 24.4373 16.9793C24.3125 16.9797 24.189 17.0043 24.0738 17.0519C23.9586 17.0995 23.854 17.169 23.766 17.2565C23.678 17.3441 23.6083 17.4479 23.5608 17.562C23.0236 18.8552 22.2386 20.0334 21.249 21.032C19.403 22.8929 16.808 24.1203 13.6426 24.1203C7.10266 24.1203 2.90114 18.8289 2.90114 13.5Z" fill="black" stroke="black"/>
</svg>
